<svg xmlns="http://www.w3.org/2000/svg" width="1440" height="960" viewBox="0 0 1440 960" role="img" aria-label="Product dashboard visual parity screenshot">
  <rect width="1440" height="960" fill="#f6f7f9"/>
  <rect x="32" y="32" width="248" height="896" rx="8" fill="#fff" stroke="#d9dee7"/>
  <text x="56" y="76" font-family="Inter, Arial" font-size="18" font-weight="700" fill="#16202a">Northstar</text>
  <rect x="52" y="122" width="180" height="40" rx="6" fill="#eaf0ff"/>
  <text x="68" y="148" font-family="Inter, Arial" font-size="15" fill="#2457d6">Overview</text>
  <text x="68" y="202" font-family="Inter, Arial" font-size="15" fill="#66717f">Customers</text>
  <text x="68" y="250" font-family="Inter, Arial" font-size="15" fill="#66717f">Signals</text>
  <text x="68" y="298" font-family="Inter, Arial" font-size="15" fill="#66717f">Reports</text>
  <text x="320" y="64" font-family="Inter, Arial" font-size="14" fill="#66717f">Product dashboard</text>
  <text x="320" y="108" font-family="Inter, Arial" font-size="42" font-weight="700" fill="#16202a">Growth operating room</text>
  <rect x="1220" y="58" width="144" height="44" rx="8" fill="#2457d6"/>
  <text x="1248" y="86" font-family="Inter, Arial" font-size="15" font-weight="700" fill="#fff">Share brief</text>
  <g>
    <rect x="320" y="148" width="324" height="152" rx="8" fill="#fff" stroke="#d9dee7"/>
    <text x="348" y="190" font-family="Inter, Arial" font-size="15" fill="#66717f">Pipeline</text>
    <text x="348" y="246" font-family="Inter, Arial" font-size="42" font-weight="700" fill="#16202a">$2.4M</text>
    <text x="560" y="246" font-family="Inter, Arial" font-size="16" font-weight="700" fill="#14855f">+18%</text>
    <rect x="668" y="148" width="324" height="152" rx="8" fill="#fff" stroke="#d9dee7"/>
    <text x="696" y="190" font-family="Inter, Arial" font-size="15" fill="#66717f">Activation</text>
    <text x="696" y="246" font-family="Inter, Arial" font-size="42" font-weight="700" fill="#16202a">68%</text>
    <text x="900" y="246" font-family="Inter, Arial" font-size="16" font-weight="700" fill="#14855f">+7 pts</text>
    <rect x="1016" y="148" width="324" height="152" rx="8" fill="#fff" stroke="#d9dee7"/>
    <text x="1044" y="190" font-family="Inter, Arial" font-size="15" fill="#66717f">Open risk</text>
    <text x="1044" y="246" font-family="Inter, Arial" font-size="42" font-weight="700" fill="#16202a">12</text>
    <text x="1244" y="246" font-family="Inter, Arial" font-size="16" font-weight="700" fill="#aa6a12">-4</text>
  </g>
  <rect x="320" y="330" width="656" height="420" rx="8" fill="#fff" stroke="#d9dee7"/>
  <text x="352" y="378" font-family="Inter, Arial" font-size="14" fill="#66717f">Revenue trend</text>
  <text x="352" y="418" font-family="Inter, Arial" font-size="28" font-weight="700" fill="#16202a">Expansion momentum</text>
  <line x1="352" y1="674" x2="932" y2="674" stroke="#d9dee7"/>
  <rect x="386" y="570" width="42" height="104" rx="7" fill="#2457d6"/>
  <rect x="458" y="536" width="42" height="138" rx="7" fill="#2457d6"/>
  <rect x="530" y="552" width="42" height="122" rx="7" fill="#2457d6"/>
  <rect x="602" y="494" width="42" height="180" rx="7" fill="#2457d6"/>
  <rect x="674" y="508" width="42" height="166" rx="7" fill="#2457d6"/>
  <rect x="746" y="458" width="42" height="216" rx="7" fill="#2457d6"/>
  <rect x="818" y="474" width="42" height="200" rx="7" fill="#2457d6"/>
  <rect x="890" y="424" width="42" height="250" rx="7" fill="#2457d6"/>
  <rect x="1000" y="330" width="340" height="420" rx="8" fill="#fff" stroke="#d9dee7"/>
  <text x="1032" y="378" font-family="Inter, Arial" font-size="14" fill="#66717f">Priority accounts</text>
  <text x="1032" y="418" font-family="Inter, Arial" font-size="28" font-weight="700" fill="#16202a">Today</text>
  <text x="1032" y="488" font-family="Inter, Arial" font-size="16" fill="#16202a">Acme onboarding</text>
  <text x="1224" y="488" font-family="Inter, Arial" font-size="16" font-weight="700" fill="#14855f">Healthy</text>
  <line x1="1032" y1="516" x2="1308" y2="516" stroke="#d9dee7"/>
  <text x="1032" y="560" font-family="Inter, Arial" font-size="16" fill="#16202a">Northwind renewal</text>
  <text x="1224" y="560" font-family="Inter, Arial" font-size="16" fill="#66717f">Review</text>
  <line x1="1032" y1="588" x2="1308" y2="588" stroke="#d9dee7"/>
  <text x="1032" y="632" font-family="Inter, Arial" font-size="16" fill="#16202a">Globex expansion</text>
  <text x="1224" y="632" font-family="Inter, Arial" font-size="16" font-weight="700" fill="#14855f">Ready</text>
</svg>
